<?xml version="1.0" encoding="UTF-8" standalone="no"?>
<svg
   xmlns:dc="http://purl.org/dc/elements/1.1/"
   xmlns:cc="http://creativecommons.org/ns#"
   xmlns:rdf="http://www.w3.org/1999/02/22-rdf-syntax-ns#"
   xmlns:svg="http://www.w3.org/2000/svg"
   xmlns="http://www.w3.org/2000/svg"
   viewBox="0 0 1312.5 1312.5"
   height="1312.5"
   width="1312.5"
   xml:space="preserve"
   version="1.1"
   id="svg2"><metadata
     id="metadata8"><rdf:RDF><cc:Work
         rdf:about=""><dc:format>image/svg+xml</dc:format><dc:type
           rdf:resource="http://purl.org/dc/dcmitype/StillImage" /><dc:title></dc:title></cc:Work></rdf:RDF></metadata><defs
     id="defs6" /><g
     transform="matrix(1.25,0,0,-1.25,-93.75,1406.25)"
     id="g10"><g
       transform="scale(0.1,0.1)"
       id="g12"><path
         id="path16"
         style="fill:#4e2455;fill-opacity:1;fill-rule:nonzero;stroke:none"
         d="M 11250,6000 C 11250,3100.49 8899.51,750 6000,750 3100.49,750 750,3100.49 750,6000 c 0,2899.51 2350.49,5250 5250,5250 2899.51,0 5250,-2350.49 5250,-5250" /><path
         id="path18"
         style="fill:#dcdbd9;fill-opacity:1;fill-rule:evenodd;stroke:none"
         d="m 1482.19,8745.47 4371.09,0 935.57,-935.57 0,-5672.93 -5306.66,0 0,6608.5" /><path
         id="path20"
         style="fill:#aaa9a8;fill-opacity:1;fill-rule:evenodd;stroke:none"
         d="m 6788.85,7809.9 -935.57,0 0,935.57 935.57,-935.57" /><path
         id="path22"
         style="fill:#e93639;fill-opacity:1;fill-rule:evenodd;stroke:none"
         d="m 4948.59,5870.45 -1948.33,-1548.99 507.51,-862.79 1551.16,375.18 -110.34,2036.6" /><path
         id="path24"
         style="fill:#f14840;fill-opacity:1;fill-rule:evenodd;stroke:none"
         d="m 4948.59,2483.38 0,3387.07 1526.9,-1838.09 -1526.9,-1548.98" /><path
         id="path26"
         style="fill:#f25652;fill-opacity:1;fill-rule:evenodd;stroke:none"
         d="m 7194.81,2483.38 0,3387.07 L 8635.69,4786.99 7194.81,2483.38" /><path
         id="path28"
         style="fill:#e93639;fill-opacity:1;fill-rule:evenodd;stroke:none"
         d="m 4948.59,5870.45 2246.22,0 0,-1692.42 -719.32,-145.67 -1526.9,1838.09" /><path
         id="path30"
         style="fill:#b52124;fill-opacity:1;fill-rule:evenodd;stroke:none"
         d="m 8225.24,9813.4 154.52,-619.98 1484.91,-377.35 286.83,355.26 -1926.26,642.07" /><path
         id="path32"
         style="fill:#f14840;fill-opacity:1;fill-rule:evenodd;stroke:none"
         d="M 8635.69,4786.99 9021.83,9769.28 8225.24,9813.4 7194.81,5870.45 8635.69,4786.99" /><path
         id="path34"
         style="fill:#f25652;fill-opacity:1;fill-rule:evenodd;stroke:none"
         d="m 8225.24,9813.4 463.45,516.3 1352.51,-560.42 110.3,-597.95 -1926.26,642.07" /><path
         id="path36"
         style="fill:#b52124;fill-opacity:1;fill-rule:evenodd;stroke:none"
         d="m 3421.7,3604.34 -1707.8,959.82 1286.36,-242.7 421.44,-717.12" /><path
         id="path38"
         style="fill:#e93639;fill-opacity:1;fill-rule:evenodd;stroke:none"
         d="m 8225.24,9813.4 154.52,-364.04 1484.91,-419.24 286.83,154.51 -1926.26,628.77" /><path
         id="path40"
         style="fill:#5e6061;fill-opacity:1;fill-rule:evenodd;stroke:none"
         d="m 4242.51,7893.81 c 57.39,0 103.74,-48.58 103.74,-105.94 0,-57.36 -46.35,-103.71 -103.74,-103.71 -57.33,0 -103.68,46.35 -103.68,103.71 0,57.36 46.35,105.94 103.68,105.94 l 0,0 z m -1705.58,-785.57 0,0 c 0,152.29 -8.84,366.27 143.38,364.05 125.74,-2.17 529.54,143.49 1045.9,350.91 l -1109.88,478.77 c -141.21,59.59 -143.41,211.82 -143.41,364.1 l 0,0 c 0,152.23 225.06,202.97 364.07,143.38 214.02,-94.86 789.93,-394.98 1454.12,-754.63 1303.98,540.59 2903.7,1246.7 2903.7,1105.49 0,-346.4 -1202.52,-928.94 -2345.5,-1412.11 1467.33,-807.65 2996.42,-1699.04 1981.43,-1262.16 l -2466.85,1061.3 c -675.18,-273.63 -1259.92,-494.23 -1462.91,-582.42 -139.05,-61.87 -364.05,-8.9 -364.05,143.32 l 0,0" /><path
         id="path42"
         style="fill:#f7b127;fill-opacity:1;fill-rule:evenodd;stroke:none"
         d="m 2488.36,8838.11 c 0,253.82 -207.39,461.19 -461.16,461.19 -255.97,0 -463.36,-207.37 -463.36,-461.19 0,-255.94 207.39,-463.31 463.36,-463.31 253.77,0 461.16,207.37 461.16,463.31 l 0,0 z m 414.81,0 c 0,483.28 -392.75,876.03 -875.97,876.03 -485.42,0 -878.21,-392.75 -878.21,-876.03 0,-485.4 392.79,-878.15 878.21,-878.15 483.22,0 875.97,392.75 875.97,878.15 l 0,0" /><path
         id="path44"
         style="fill:#f7b127;fill-opacity:1;fill-rule:evenodd;stroke:none"
         d="m 2488.36,6905.27 c 0,253.71 -207.39,461.14 -461.16,461.14 -255.97,0 -463.36,-207.43 -463.36,-461.14 0,-255.99 207.39,-463.36 463.36,-463.36 253.77,0 461.16,207.37 461.16,463.36 l 0,0 z m 414.81,0 c 0,483.23 -392.75,875.98 -875.97,875.98 -485.42,0 -878.21,-392.75 -878.21,-875.98 0,-485.5 392.79,-878.26 878.21,-878.26 483.22,0 875.97,392.76 875.97,878.26 l 0,0" /><path
         id="path46"
         style="fill:#ffffff;fill-opacity:1;fill-rule:nonzero;stroke:none"
         d="m 5195.71,7809.9 c 33.08,0 59.59,-26.42 59.59,-59.53 0,-30.88 -26.51,-57.42 -59.59,-57.42 l -114.69,0 c -33.11,0 -59.62,26.54 -59.62,57.42 0,33.11 26.51,59.53 59.62,59.53 l 114.69,0 z m 467.82,0 c 33.07,0 59.56,-26.42 59.56,-59.53 0,-30.88 -26.49,-57.42 -59.56,-57.42 l -116.96,0 c -30.88,0 -57.33,26.54 -57.33,57.42 0,33.11 26.45,59.53 57.33,59.53 l 116.96,0 z m 467.81,0 c 30.85,0 57.3,-26.42 57.3,-59.53 0,-30.88 -26.45,-57.42 -57.3,-57.42 l -116.98,0 c -33.08,0 -59.59,26.54 -59.59,57.42 0,33.11 26.51,59.53 59.59,59.53 l 116.98,0 z m 467.72,0 c 30.91,0 57.4,-26.42 57.4,-59.53 0,-30.88 -26.49,-57.42 -57.4,-57.42 l -116.89,0 c -33.17,0 -59.59,26.54 -59.59,57.42 0,33.11 26.42,59.53 59.59,59.53 l 116.89,0 z m 465.59,0 c 33.07,0 59.62,-26.42 59.62,-59.53 0,-30.88 -26.55,-57.42 -59.62,-57.42 l -116.9,0 c -30.96,0 -57.39,26.54 -57.39,57.42 0,33.11 26.43,59.53 57.39,59.53 l 116.9,0 z m 467.81,0 c 30.85,0 57.31,-26.42 57.31,-59.53 0,-30.88 -26.46,-57.42 -57.31,-57.42 l -117.01,0 c -33.05,0 -57.39,26.54 -57.39,57.42 0,33.11 24.34,59.53 57.39,59.53 l 117.01,0 z m 467.75,0 c 30.94,0 57.34,-26.42 57.34,-59.53 0,-30.88 -26.4,-57.42 -57.34,-57.42 l -116.92,0 c -33.16,0 -59.62,26.54 -59.62,57.42 0,33.11 26.46,59.53 59.62,59.53 l 116.92,0 z m 465.59,0 c 33.02,0 59.56,-26.42 59.56,-59.53 0,-30.88 -26.54,-57.42 -59.56,-57.42 l -116.95,0 c -30.94,0 -57.39,26.54 -57.39,57.42 0,33.11 26.45,59.53 57.39,59.53 l 116.95,0 z m 467.78,0 c 33.05,0 57.31,-26.42 57.31,-59.53 0,-30.88 -24.26,-57.42 -57.31,-57.42 l -116.98,0 c -33.07,0 -57.39,26.54 -57.39,57.42 0,33.11 24.32,59.53 57.39,59.53 l 116.98,0 z m 467.73,0 c 30.94,0 57.42,-26.42 57.42,-59.53 0,-30.88 -26.48,-57.42 -57.42,-57.42 l -116.9,0 c -33.16,0 -59.62,26.54 -59.62,57.42 0,33.11 26.46,59.53 59.62,59.53 l 116.9,0 z m 465.58,0 c 33.08,0 59.62,-26.42 59.62,-59.53 0,-30.88 -26.54,-57.42 -59.62,-57.42 l -116.89,0 c -30.94,0 -57.39,26.54 -57.39,57.42 0,33.11 26.45,59.53 57.39,59.53 l 116.89,0 z m 467.81,0 c 33.1,0 57.3,-26.42 57.3,-59.53 0,-30.88 -24.2,-57.42 -57.3,-57.42 l -117,0 c -33.1,0 -57.4,26.54 -57.4,57.42 0,33.11 24.3,59.53 57.4,59.53 l 117,0 z m 456.7,0 c 33.2,0 59.6,-26.42 59.6,-59.53 0,-30.88 -26.4,-57.42 -59.6,-57.42 l -105.9,0 c -33.1,0 -59.6,26.54 -59.6,57.42 0,33.11 26.5,59.53 59.6,59.53 l 105.9,0" /><path
         id="path48"
         style="fill:#e93639;fill-opacity:1;fill-rule:evenodd;stroke:none"
         d="m 9043.89,4005.94 c -41.96,178.71 -147.86,277.97 -308.94,302.34 141.21,44.06 255.94,134.53 308.94,317.64 55.13,-183.11 167.72,-273.58 308.9,-317.64 -161.07,-24.37 -264.81,-123.63 -308.9,-302.34 l 0,0" /><path
         id="path50"
         style="fill:#e93639;fill-opacity:1;fill-rule:evenodd;stroke:none"
         d="m 8145.82,2399.53 c -28.65,117.01 -97.06,181 -205.17,198.63 94.87,28.66 169.9,88.25 205.17,209.59 35.27,-121.34 110.3,-180.93 203.03,-209.59 -105.94,-17.63 -176.55,-81.62 -203.03,-198.63 l 0,0" /><path
         id="path52"
         style="fill:#f25652;fill-opacity:1;fill-rule:evenodd;stroke:none"
         d="m 9480.76,2567.29 c -57.33,236.07 -196.35,366.26 -410.45,399.37 187.65,59.53 339.82,180.94 410.45,423.63 70.61,-242.69 220.67,-364.1 410.39,-423.63 -213.98,-33.11 -353.02,-163.3 -410.39,-399.37 l 0,0" /><path
         id="path54"
         style="fill:#f25652;fill-opacity:1;fill-rule:evenodd;stroke:none"
         d="m 9674.97,5237.17 c -28.74,119.12 -99.34,185.33 -207.45,202.97 94.86,28.71 172.09,90.41 207.45,214.04 37.47,-123.63 112.53,-185.33 209.56,-214.04 -110.33,-17.64 -180.94,-83.85 -209.56,-202.97 l 0,0" /><path
         id="path56"
         style="fill:#e93639;fill-opacity:1;fill-rule:evenodd;stroke:none"
         d="m 9602.14,6666.97 c -48.58,194.12 -163.27,302.35 -339.82,328.71 156.68,48.64 280.2,147.89 339.82,348.69 57.36,-200.8 180.94,-300.05 337.59,-348.69 -176.49,-26.36 -291.27,-134.59 -337.59,-328.71 l 0,0" /><path
         id="path58"
         style="fill:#e93639;fill-opacity:1;fill-rule:evenodd;stroke:none"
         d="m 10438.4,4405.31 c -28.7,123.52 -101.5,191.9 -214.1,209.59 97.1,30.94 176.6,94.87 214.1,220.67 37.5,-125.8 116.9,-189.73 214,-220.67 -110.3,-17.69 -183.1,-86.07 -214,-209.59 l 0,0" /><path
         id="path60"
         style="fill:#f25652;fill-opacity:1;fill-rule:evenodd;stroke:none"
         d="m 10469.3,5943.16 c -52.9,218.5 -183.1,339.85 -379.5,370.79 172.1,55.07 313.3,165.46 379.5,390.52 64,-225.06 205.2,-335.45 379.5,-390.52 -198.6,-30.94 -328.8,-152.29 -379.5,-370.79 l 0,0" /></g></g></svg>