<?xml version="1.0" encoding="UTF-8" standalone="no"?>
<svg
   xmlns:osb="http://www.openswatchbook.org/uri/2009/osb"
   xmlns:dc="http://purl.org/dc/elements/1.1/"
   xmlns:cc="http://creativecommons.org/ns#"
   xmlns:rdf="http://www.w3.org/1999/02/22-rdf-syntax-ns#"
   xmlns:svg="http://www.w3.org/2000/svg"
   xmlns="http://www.w3.org/2000/svg"
   viewBox="0 0 235.52374 192.45125"
   height="192.45125"
   width="235.52374"
   xml:space="preserve"
   version="1.1"
   id="svg2"><metadata
     id="metadata8"><rdf:RDF><cc:Work
         rdf:about=""><dc:format>image/svg+xml</dc:format><dc:type
           rdf:resource="http://purl.org/dc/dcmitype/StillImage" /><dc:title></dc:title></cc:Work></rdf:RDF></metadata><defs
     id="defs6"><linearGradient
       osb:paint="solid"
       id="linearGradient4534"><stop
         id="stop4536"
         offset="0"
         style="stop-color:#1abc9c;stop-opacity:1;" /></linearGradient><linearGradient
       osb:paint="solid"
       id="linearGradient4528"><stop
         id="stop4530"
         offset="0"
         style="stop-color:#96d3b9;stop-opacity:1;" /></linearGradient><linearGradient
       osb:paint="solid"
       id="linearGradient4516"><stop
         id="stop4518"
         offset="0"
         style="stop-color:#82c9ac;stop-opacity:1;" /></linearGradient></defs><g
     transform="matrix(1.25,0,0,-1.25,-383.53,881.0475)"
     id="g10"><g
       transform="scale(0.1,0.1)"
       id="g12"><g
         transform="matrix(-1,0,0,1,8020.67,0)"
         id="g4340"><path
           d="m 3394.98,5914.14 738.35,779.52 6.66,-716.95 -745.01,-62.57"
           style="fill:#1fb5da;fill-opacity:1;fill-rule:nonzero;stroke:none"
           id="path106" /><path
           d="m 4952.43,6778.71 -819.1,-85.05 6.66,-716.95 812.44,802"
           style="fill:#6ec8c8;fill-opacity:1;fill-rule:nonzero;stroke:none"
           id="path108" /><path
           id="path110"
           transform="matrix(8,0,0,-8,3068.24,7048.38)"
           d="m 133.96875,133.95898 -93.126953,7.82032 96.175783,50.67187 z"
           style="fill:#37b786;fill-opacity:1;fill-rule:nonzero;stroke:none" /><path
           d="m 4873.08,5964.16 -708.7,-455.39 -24.39,467.94 174.96,172.73 558.13,-185.28"
           style="fill:#f67e42;fill-opacity:1;fill-rule:nonzero;stroke:none"
           id="path114" /><path
           d="m 3753.47,6292.63 -263.9,67.58 -94.59,-446.07 358.49,378.49"
           style="fill:#e93735;fill-opacity:1;fill-rule:nonzero;stroke:none"
           id="path116" /><path
           d="m 3099.21,6273.24 390.36,86.97 -94.59,-446.07 -295.77,359.1"
           style="fill:#f67e42;fill-opacity:1;fill-rule:nonzero;stroke:none"
           id="path118" /><path
           d="m 3068.24,6060.14 126.96,96.54 -95.99,116.56 -30.97,-213.1"
           style="fill:url(#linearGradient4534);fill-opacity:1;fill-rule:nonzero;stroke:none"
           id="path120" /><path
           d="m 3527.37,6350.53 255.16,457.73 805.72,240.12 -190.78,-327.3 -264.14,-27.42 -379.86,-401.03 -226.1,57.9"
           style="fill:#ffbe00;fill-opacity:1;fill-rule:nonzero;stroke:none"
           id="path122" /></g></g></g></svg>