<?xml version="1.0" encoding="UTF-8" standalone="no"?>
<svg
   xmlns:osb="http://www.openswatchbook.org/uri/2009/osb"
   xmlns:dc="http://purl.org/dc/elements/1.1/"
   xmlns:cc="http://creativecommons.org/ns#"
   xmlns:rdf="http://www.w3.org/1999/02/22-rdf-syntax-ns#"
   xmlns:svg="http://www.w3.org/2000/svg"
   xmlns="http://www.w3.org/2000/svg"
   id="svg2"
   version="1.1"
   xml:space="preserve"
   width="32"
   height="32"
   viewBox="0 0 32 32"><metadata
     id="metadata8"><rdf:RDF><cc:Work
         rdf:about=""><dc:format>image/svg+xml</dc:format><dc:type
           rdf:resource="http://purl.org/dc/dcmitype/StillImage" /><dc:title></dc:title></cc:Work></rdf:RDF></metadata><defs
     id="defs6"><linearGradient
       id="linearGradient4534"
       osb:paint="solid"><stop
         style="stop-color:#1abc9c;stop-opacity:1;"
         offset="0"
         id="stop4536" /></linearGradient><linearGradient
       id="linearGradient4528"
       osb:paint="solid"><stop
         style="stop-color:#96d3b9;stop-opacity:1;"
         offset="0"
         id="stop4530" /></linearGradient><linearGradient
       id="linearGradient4516"
       osb:paint="solid"><stop
         style="stop-color:#82c9ac;stop-opacity:1;"
         offset="0"
         id="stop4518" /></linearGradient></defs><g
     id="g10"
     transform="matrix(0.15958262,0,0,-0.15958262,-48.053616,116.14933)"><g
       id="g12"
       transform="scale(0.1,0.1)"><g
         id="g4340"
         transform="matrix(-1,0,0,1,8020.67,0)"><path
           id="path106"
           style="fill:#1fb5da;fill-opacity:1;fill-rule:nonzero;stroke:none"
           d="m 3394.98,5914.14 738.35,779.52 6.66,-716.95 -745.01,-62.57" /><path
           id="path108"
           style="fill:#6ec8c8;fill-opacity:1;fill-rule:nonzero;stroke:none"
           d="m 4952.43,6778.71 -819.1,-85.05 6.66,-716.95 812.44,802" /><path
           style="fill:#37b786;fill-opacity:1;fill-rule:nonzero;stroke:none"
           d="m 133.96875,133.95898 -93.126953,7.82032 96.175783,50.67187 z"
           transform="matrix(8,0,0,-8,3068.24,7048.38)"
           id="path110" /><path
           id="path114"
           style="fill:#f67e42;fill-opacity:1;fill-rule:nonzero;stroke:none"
           d="m 4873.08,5964.16 -708.7,-455.39 -24.39,467.94 174.96,172.73 558.13,-185.28" /><path
           id="path116"
           style="fill:#e93735;fill-opacity:1;fill-rule:nonzero;stroke:none"
           d="m 3753.47,6292.63 -263.9,67.58 -94.59,-446.07 358.49,378.49" /><path
           id="path118"
           style="fill:#f67e42;fill-opacity:1;fill-rule:nonzero;stroke:none"
           d="m 3099.21,6273.24 390.36,86.97 -94.59,-446.07 -295.77,359.1" /><path
           id="path120"
           style="fill:url(#linearGradient4534);fill-opacity:1;fill-rule:nonzero;stroke:none"
           d="m 3068.24,6060.14 126.96,96.54 -95.99,116.56 -30.97,-213.1" /><path
           id="path122"
           style="fill:#ffbe00;fill-opacity:1;fill-rule:nonzero;stroke:none"
           d="m 3527.37,6350.53 255.16,457.73 805.72,240.12 -190.78,-327.3 -264.14,-27.42 -379.86,-401.03 -226.1,57.9" /></g></g></g></svg>